# xmcd
#
# Track frame offsets:
#	150
#	10092
#	22542
#	33627
#	43732
#	53862
#	64195
#	75935
#	86712
#	97520
#
# Disc length: 1454 seconds
#
# Revision: 0
# Processed by: cddbd v1.5.1PL0 Copyright (c) Steve Scherf et al.
# Submitted via: dBpowerAMP V4.0
#
DISCID=6405ac0a
DTITLE=Conway Twitty - It's Only Make Believe
DYEAR=1900
DGENRE=Country
TTITLE0=It's Only Make Believe
TTITLE1=Danny Boy
TTITLE2=Heavenly
TTITLE3=I'll Try
TTITLE4=Lonely Blue Boy
TTITLE5=Halfway to Heaven
TTITLE6=Is a Blue Bird Blue?
TTITLE7=The Hurt in my Heart
TTITLE8=Mona Lisa
TTITLE9=What am I Living For?
EXTD=\n
EXTT0=
EXTT1=
EXTT2=
EXTT3=
EXTT4=
EXTT5=
EXTT6=
EXTT7=
EXTT8=
EXTT9=
PLAYORDER=
